# xmcd
#
# Track frame offsets:
#	151
#	11644
#	20048
#	28808
#	44307
#	56140
#	77255
#	95083
#	107304
#	121473
#	133618
#	147516
#	161460
#	172594
#	184339
#	195294
#	204371
#	220538
#	233856
#	244896
#	256732
#	269521
#	283711
#	292269
#	305444
#
# Disc length: 4268 seconds
#
# Revision: 1
# Processed by: cddbd v1.5.1PL0 Copyright (c) Steve Scherf et al.
# Submitted via: audiograbber 1.81.03
#
DISCID=6410aa19
DTITLE=charles aznavour - c'est fini
DYEAR=2001
DGENRE=chanson
TTITLE0=j'ai vecu
TTITLE1=reste
TTITLE2=a ma femme
TTITLE3=idiote je t'aime
TTITLE4=le temps
TTITLE5=ma vie, o ma vie!
TTITLE6=mourir d'aimer
TTITLE7=c'est fini
TTITLE8=avec
TTITLE9=de ville en ville
TTITLE10=j'en deduis que je t'aime
TTITLE11=sophie
TTITLE12=je reveiendrai de loin
TTITLE13=a tout jamais
TTITLE14=de t'avoir aimee
TTITLE15=liberte
TTITLE16=emmenez-moi
TTITLE17=eteins la lumiere
TTITLE18=un jour
TTITLE19=je reviens fanny
TTITLE20=ma main a besoin de ta main
TTITLE21=je te rechaufferai
TTITLE22=quand j'en aurai assez
TTITLE23=comme une maladie
TTITLE24=le chermin de l'eternite
EXTD=
EXTT0=
EXTT1=
EXTT2=
EXTT3=
EXTT4=
EXTT5=
EXTT6=
EXTT7=
EXTT8=
EXTT9=
EXTT10=
EXTT11=
EXTT12=
EXTT13=
EXTT14=
EXTT15=
EXTT16=
EXTT17=
EXTT18=
EXTT19=
EXTT20=
EXTT21=
EXTT22=
EXTT23=
EXTT24=
PLAYORDER=
